<svg xmlns="http://www.w3.org/2000/svg" viewBox="0 0 512 512"><defs>
<radialGradient id="lit" cx=".5" cy=".35" r=".7"><stop offset="0" stop-color="#fff1c9"/><stop offset=".45" stop-color="#ffd98a"/><stop offset="1" stop-color="#f2a444"/></radialGradient>
<linearGradient id="wall" x1="0" y1="0" x2="0" y2="1"><stop offset="0" stop-color="#4a4475"/><stop offset=".3" stop-color="#3a3560"/></linearGradient>
<linearGradient id="sky" x1="0" y1="0" x2="0" y2="1"><stop offset="0" stop-color="#11162d"/><stop offset="1" stop-color="#1c2146"/></linearGradient>
<filter id="glow" x="-40%" y="-40%" width="180%" height="180%"><feDropShadow dx="0" dy="0" stdDeviation="7" flood-color="#ffbe5a" flood-opacity=".55"/></filter>
</defs><rect width="512" height="512" rx="112" fill="url(#sky)"/><path d="M158 99a27 27 0 1 0 24.3 39.15a22.139999999999997 22.139999999999997 0 1 1 -24.3 -39.15z" fill="#f6e7b8"/><circle cx="372" cy="96" r="3" fill="#fff" opacity="0.8"/><circle cx="414" cy="160" r="2.2" fill="#fff" opacity="0.6"/><circle cx="256" cy="104" r="2" fill="#fff" opacity="0.55"/><circle cx="112" cy="206" r="2" fill="#fff" opacity="0.5"/><circle cx="336" cy="132" r="1.6" fill="#fff" opacity="0.5"/><g fill="#2c284b"><rect x="296" y="141.48" width="49.3" height="35.96" rx="9.28"/><rect x="302.902" y="175.44" width="4.64" height="17.4"/><rect x="333.75800000000004" y="175.44" width="4.64" height="17.4"/></g><rect x="134" y="196" width="244" height="316" fill="url(#wall)"/><rect x="117.75999999999999" y="190.2" width="276.48" height="14.5" rx="2.9000000000000004" fill="#4a4475"/><rect x="155" y="227.9" width="58" height="58" rx="3.48" fill="#1b1f3d"/><g fill="rgba(0,0,0,.28)"><rect x="182.26" y="227.9" width="3.48" height="58"/><rect x="155" y="258.06" width="58" height="3.48"/></g><rect x="155.75" y="228.65" width="56.5" height="56.5" rx="3.48" fill="none" stroke="rgba(0,0,0,.35)" stroke-width="1.5"/><rect x="227" y="227.9" width="58" height="58" rx="3.48" fill="url(#lit)" filter="url(#glow)"/><path d="M227 227.9h17.4q-4.64 29 2.32 58H227z" fill="#c9782e" opacity=".45"/><g fill="rgba(0,0,0,.28)"><rect x="254.26" y="227.9" width="3.48" height="58"/><rect x="227" y="258.06" width="58" height="3.48"/></g><rect x="227.75" y="228.65" width="56.5" height="56.5" rx="3.48" fill="none" stroke="rgba(0,0,0,.35)" stroke-width="1.5"/><rect x="299" y="227.9" width="58" height="58" rx="3.48" fill="#1b1f3d"/><g fill="rgba(0,0,0,.28)"><rect x="326.26" y="227.9" width="3.48" height="58"/><rect x="299" y="258.06" width="58" height="3.48"/></g><rect x="299.75" y="228.65" width="56.5" height="56.5" rx="3.48" fill="none" stroke="rgba(0,0,0,.35)" stroke-width="1.5"/><rect x="155" y="299.9" width="58" height="58" rx="3.48" fill="url(#lit)" filter="url(#glow)"/><g fill="rgba(0,0,0,.28)"><rect x="182.26" y="299.9" width="3.48" height="58"/><rect x="155" y="330.05999999999995" width="58" height="3.48"/></g><rect x="155.75" y="300.65" width="56.5" height="56.5" rx="3.48" fill="none" stroke="rgba(0,0,0,.35)" stroke-width="1.5"/><rect x="227" y="299.9" width="58" height="58" rx="3.48" fill="url(#lit)" filter="url(#glow)"/><g fill="rgba(0,0,0,.28)"><rect x="254.26" y="299.9" width="3.48" height="58"/><rect x="227" y="330.05999999999995" width="58" height="3.48"/></g><rect x="227.75" y="300.65" width="56.5" height="56.5" rx="3.48" fill="none" stroke="rgba(0,0,0,.35)" stroke-width="1.5"/><rect x="299" y="299.9" width="58" height="58" rx="3.48" fill="url(#lit)" filter="url(#glow)"/><g fill="rgba(0,0,0,.28)"><rect x="326.26" y="299.9" width="3.48" height="58"/><rect x="299" y="330.05999999999995" width="58" height="3.48"/></g><rect x="299.75" y="300.65" width="56.5" height="56.5" rx="3.48" fill="none" stroke="rgba(0,0,0,.35)" stroke-width="1.5"/><rect x="155" y="371.9" width="58" height="58" rx="3.48" fill="#1b1f3d"/><g fill="rgba(0,0,0,.28)"><rect x="182.26" y="371.9" width="3.48" height="58"/><rect x="155" y="402.05999999999995" width="58" height="3.48"/></g><rect x="155.75" y="372.65" width="56.5" height="56.5" rx="3.48" fill="none" stroke="rgba(0,0,0,.35)" stroke-width="1.5"/><rect x="227" y="371.9" width="58" height="58" rx="3.48" fill="url(#lit)" filter="url(#glow)"/><g fill="#9a5a22" opacity=".55"><rect x="264.12" y="418.29999999999995" width="11.600000000000001" height="11.600000000000001" rx="1.74"/><ellipse cx="265.86" cy="412.5" rx="4.0600000000000005" ry="7.54" transform="rotate(-25 265.86 412.5)"/><ellipse cx="273.98" cy="411.34" rx="4.0600000000000005" ry="8.120000000000001" transform="rotate(25 273.98 411.34)"/></g><g fill="rgba(0,0,0,.28)"><rect x="254.26" y="371.9" width="3.48" height="58"/><rect x="227" y="402.05999999999995" width="58" height="3.48"/></g><rect x="227.75" y="372.65" width="56.5" height="56.5" rx="3.48" fill="none" stroke="rgba(0,0,0,.35)" stroke-width="1.5"/><rect x="299" y="371.9" width="58" height="58" rx="3.48" fill="#1b1f3d"/><g fill="rgba(0,0,0,.28)"><rect x="326.26" y="371.9" width="3.48" height="58"/><rect x="299" y="402.05999999999995" width="58" height="3.48"/></g><rect x="299.75" y="372.65" width="56.5" height="56.5" rx="3.48" fill="none" stroke="rgba(0,0,0,.35)" stroke-width="1.5"/></svg>